<svg width="13" height="13" viewBox="0 0 13 13" fill="none" xmlns="http://www.w3.org/2000/svg">
<g clip-path="url(#clip0_1_903)">
<path d="M1.97061 11.7395L1.78901 12.0959H1.78901L1.97061 11.7395ZM1.26046 11.0294L0.904055 11.211H0.904055L1.26046 11.0294ZM11.7396 11.0294L12.096 11.211L11.7396 11.0294ZM11.0294 11.7395L11.211 12.0959L11.0294 11.7395ZM11.0294 2.88543L11.211 2.52902L11.0294 2.88543ZM11.7396 3.59558L12.096 3.41398V3.41398L11.7396 3.59558ZM1.97061 2.88543L1.78901 2.52902L1.97061 2.88543ZM1.26046 3.59558L0.904055 3.41398L1.26046 3.59558ZM8.32108 1.26043L8.13948 1.61683V1.61683L8.32108 1.26043ZM9.03123 1.97058L9.38763 1.78898L9.38763 1.78898L9.03123 1.97058ZM4.67894 1.26043L4.49735 0.904025L4.67894 1.26043ZM3.96879 1.97058L4.32519 2.15217L3.96879 1.97058ZM11.9167 5.30831H11.5167V9.31665H11.9167H12.3167V5.30831H11.9167ZM9.31668 11.9166V11.5166H3.68334V11.9166V12.3166H9.31668V11.9166ZM1.08334 9.31665H1.48334V5.30831H1.08334H0.683343V9.31665H1.08334ZM3.68334 11.9166V11.5166C3.2217 11.5166 2.89952 11.5163 2.64862 11.4958C2.40238 11.4757 2.26022 11.4382 2.15221 11.3831L1.97061 11.7395L1.78901 12.0959C2.0286 12.218 2.28777 12.269 2.58347 12.2932C2.87451 12.317 3.2349 12.3166 3.68334 12.3166V11.9166ZM1.08334 9.31665H0.683343C0.683343 9.76509 0.683032 10.1255 0.706811 10.4165C0.730972 10.7122 0.781978 10.9714 0.904055 11.211L1.26046 11.0294L1.61686 10.8478C1.56182 10.7398 1.52427 10.5976 1.50415 10.3514C1.48365 10.1005 1.48334 9.77829 1.48334 9.31665H1.08334ZM1.97061 11.7395L2.15221 11.3831C1.92171 11.2657 1.73431 11.0783 1.61686 10.8478L1.26046 11.0294L0.904055 11.211C1.0982 11.592 1.40798 11.9018 1.78901 12.0959L1.97061 11.7395ZM11.9167 9.31665H11.5167C11.5167 9.77829 11.5164 10.1005 11.4959 10.3514C11.4757 10.5976 11.4382 10.7398 11.3832 10.8478L11.7396 11.0294L12.096 11.211C12.218 10.9714 12.269 10.7122 12.2932 10.4165C12.317 10.1255 12.3167 9.76509 12.3167 9.31665H11.9167ZM9.31668 11.9166V12.3166C9.76512 12.3166 10.1255 12.317 10.4165 12.2932C10.7123 12.269 10.9714 12.218 11.211 12.0959L11.0294 11.7395L10.8478 11.3831C10.7398 11.4382 10.5976 11.4757 10.3514 11.4958C10.1005 11.5163 9.77832 11.5166 9.31668 11.5166V11.9166ZM11.7396 11.0294L11.3832 10.8478C11.2657 11.0783 11.0783 11.2657 10.8478 11.3831L11.0294 11.7395L11.211 12.0959C11.592 11.9018 11.9018 11.592 12.096 11.211L11.7396 11.0294ZM9.31668 2.70831V3.10831C9.77832 3.10831 10.1005 3.10862 10.3514 3.12912C10.5976 3.14924 10.7398 3.18679 10.8478 3.24183L11.0294 2.88543L11.211 2.52902C10.9714 2.40695 10.7123 2.35594 10.4165 2.33178C10.1255 2.308 9.76512 2.30831 9.31668 2.30831V2.70831ZM11.9167 5.30831H12.3167C12.3167 4.85987 12.317 4.49948 12.2932 4.20844C12.269 3.91273 12.218 3.65357 12.096 3.41398L11.7396 3.59558L11.3832 3.77717C11.4382 3.88519 11.4757 4.02735 11.4959 4.27359C11.5164 4.52449 11.5167 4.84667 11.5167 5.30831H11.9167ZM11.0294 2.88543L10.8478 3.24183C11.0783 3.35927 11.2657 3.54668 11.3832 3.77717L11.7396 3.59558L12.096 3.41398C11.9018 3.03295 11.592 2.72317 11.211 2.52902L11.0294 2.88543ZM3.68334 2.70831V2.30831C3.2349 2.30831 2.87451 2.308 2.58347 2.33178C2.28777 2.35594 2.0286 2.40695 1.78901 2.52902L1.97061 2.88543L2.15221 3.24183C2.26022 3.18679 2.40238 3.14924 2.64862 3.12912C2.89952 3.10862 3.2217 3.10831 3.68334 3.10831V2.70831ZM1.08334 5.30831H1.48334C1.48334 4.84667 1.48365 4.52449 1.50415 4.27359C1.52427 4.02735 1.56182 3.88519 1.61686 3.77717L1.26046 3.59558L0.904055 3.41398C0.781978 3.65357 0.730972 3.91273 0.706811 4.20844C0.683032 4.49948 0.683343 4.85987 0.683343 5.30831H1.08334ZM1.97061 2.88543L1.78901 2.52902C1.40798 2.72317 1.0982 3.03295 0.904055 3.41398L1.26046 3.59558L1.61686 3.77717C1.73431 3.54668 1.92171 3.35927 2.15221 3.24183L1.97061 2.88543ZM6.39168 1.08331V1.48331H6.60834V1.08331V0.683313H6.39168V1.08331ZM6.60834 1.08331V1.48331C7.06999 1.48331 7.39216 1.48362 7.64307 1.50412C7.8893 1.52424 8.03147 1.56179 8.13948 1.61683L8.32108 1.26043L8.50267 0.904025C8.26308 0.781947 8.00392 0.730941 7.70821 0.706781C7.41717 0.683002 7.05679 0.683313 6.60834 0.683313V1.08331ZM8.32108 1.26043L8.13948 1.61683C8.36998 1.73427 8.55738 1.92168 8.67483 2.15217L9.03123 1.97058L9.38763 1.78898C9.19349 1.40795 8.8837 1.09817 8.50267 0.904025L8.32108 1.26043ZM6.39168 1.08331V0.683313C5.94323 0.683313 5.58285 0.683002 5.29181 0.706781C4.9961 0.730941 4.73694 0.781947 4.49735 0.904025L4.67894 1.26043L4.86054 1.61683C4.96855 1.56179 5.11072 1.52424 5.35695 1.50412C5.60786 1.48362 5.93003 1.48331 6.39168 1.48331V1.08331ZM4.67894 1.26043L4.49735 0.904025C4.11632 1.09817 3.80653 1.40795 3.61239 1.78898L3.96879 1.97058L4.32519 2.15217C4.44264 1.92168 4.63004 1.73427 4.86054 1.61683L4.67894 1.26043ZM3.80727 2.70831L4.20652 2.73269C4.22476 2.43409 4.26382 2.27263 4.32519 2.15217L3.96879 1.97058L3.61239 1.78898C3.47711 2.05448 3.42869 2.34519 3.40801 2.68394L3.80727 2.70831ZM3.68334 2.70831V3.10831H3.80727V2.70831V2.30831H3.68334V2.70831ZM3.80727 2.70831V3.10831H9.19275V2.70831V2.30831H3.80727V2.70831ZM9.19275 2.70831V3.10831H9.31668V2.70831V2.30831H9.19275V2.70831ZM9.19275 2.70831L9.59201 2.68394C9.57133 2.34519 9.52291 2.05448 9.38763 1.78898L9.03123 1.97058L8.67483 2.15217C8.7362 2.27263 8.77526 2.43409 8.7935 2.73269L9.19275 2.70831Z" fill="#58A544"/>
<path opacity="0.4" d="M12.0868 5.67036C12.2868 5.57639 12.3727 5.33814 12.2787 5.13821C12.1847 4.93827 11.9465 4.85237 11.7465 4.94634L11.9167 5.30835L12.0868 5.67036ZM1.25349 4.94634C1.05356 4.85237 0.815302 4.93827 0.721334 5.13821C0.627366 5.33814 0.713267 5.57639 0.913199 5.67036L1.08334 5.30835L1.25349 4.94634ZM5.39407 7.33439L5.22393 7.6964L5.39407 7.33439ZM7.60595 7.33439L7.77609 7.6964L7.60595 7.33439ZM6.21589 7.65862L6.14596 8.05246L6.14596 8.05246L6.21589 7.65862ZM6.78413 7.65862L6.85406 8.05246L6.85406 8.05246L6.78413 7.65862ZM5.95834 5.01668C5.73743 5.01668 5.55834 5.19577 5.55834 5.41668C5.55834 5.6376 5.73743 5.81668 5.95834 5.81668V5.41668V5.01668ZM7.04168 5.81668C7.26259 5.81668 7.44168 5.6376 7.44168 5.41668C7.44168 5.19577 7.26259 5.01668 7.04168 5.01668V5.41668V5.81668ZM1.08334 5.30835L0.913199 5.67036L5.22393 7.6964L5.39407 7.33439L5.56422 6.97238L1.25349 4.94634L1.08334 5.30835ZM7.60595 7.33439L7.77609 7.6964L12.0868 5.67036L11.9167 5.30835L11.7465 4.94634L7.4358 6.97238L7.60595 7.33439ZM5.39407 7.33439L5.22393 7.6964C5.61073 7.8782 5.8694 8.00335 6.14596 8.05246L6.21589 7.65862L6.28583 7.26478C6.13815 7.23856 5.99035 7.17266 5.56422 6.97238L5.39407 7.33439ZM7.60595 7.33439L7.43581 6.97238C7.00967 7.17266 6.86187 7.23856 6.71419 7.26478L6.78413 7.65862L6.85406 8.05246C7.13062 8.00335 7.38929 7.8782 7.77609 7.6964L7.60595 7.33439ZM6.21589 7.65862L6.14596 8.05246C6.38016 8.09405 6.61986 8.09405 6.85406 8.05246L6.78413 7.65862L6.71419 7.26478C6.57251 7.28994 6.42751 7.28994 6.28583 7.26478L6.21589 7.65862ZM5.95834 5.41668V5.81668H7.04168V5.41668V5.01668H5.95834V5.41668Z" fill="#58A544"/>
</g>
<defs>
<clipPath id="clip0_1_903">
<rect width="13" height="13" fill="white"/>
</clipPath>
</defs>
</svg>
