<svg width="11" height="11" viewBox="0 0 11 11" fill="none" xmlns="http://www.w3.org/2000/svg">
<path d="M4.73613 9.39579C6.84555 9.39579 8.55558 7.65157 8.55558 5.49996C8.55558 3.34835 6.84555 1.60413 4.73613 1.60413C2.6267 1.60413 0.916672 3.34835 0.916672 5.49996C0.916672 7.65157 2.6267 9.39579 4.73613 9.39579Z" stroke="#696969" stroke-width="0.7" stroke-linecap="round"/>
<path opacity="0.4" d="M9.24922 3.16245C9.31796 3.24591 9.38309 3.33257 9.44437 3.42218C9.84713 4.01114 10.0833 4.72741 10.0833 5.49995C10.0833 6.2725 9.84713 6.98877 9.44437 7.57773C9.38309 7.66734 9.31796 7.75399 9.24922 7.83745M4.73612 3.6819C5.43926 3.6819 6.00927 4.08888 6.00927 4.59093M4.73612 3.6819C4.03298 3.6819 3.46297 4.08888 3.46297 4.59093C3.46297 5.09297 4.03298 5.49995 4.73612 5.49995M4.73612 3.6819V3.03259M4.73612 3.6819V5.49995M4.73612 5.49995C5.43926 5.49995 6.00927 5.90694 6.00927 6.40898C6.00927 6.91102 5.43926 7.31801 4.73612 7.31801M4.73612 5.49995V7.31801M4.73612 7.31801C4.03298 7.31801 3.46297 6.91102 3.46297 6.40898M4.73612 7.31801V7.96731" stroke="#696969" stroke-width="0.7" stroke-linecap="round"/>
</svg>
