<svg width="14" height="14" viewBox="0 0 14 14" fill="none" xmlns="http://www.w3.org/2000/svg">
<g clip-path="url(#clip0_1_745)">
<path d="M8.44429 1.93359L8.13374 1.62942C7.50381 1.01244 6.49616 1.01244 5.86624 1.62942L5.55569 1.93359C5.25701 2.22614 4.85681 2.3919 4.43876 2.39624L4.00409 2.40075C3.12239 2.4099 2.40987 3.12242 2.40072 4.00412L2.39621 4.43879C2.39187 4.85685 2.22611 5.25704 1.93356 5.55572L1.62939 5.86627C1.01241 6.49619 1.01241 7.50385 1.62939 8.13377L1.93356 8.44432C2.22611 8.743 2.39187 9.1432 2.39621 9.56125L2.40072 9.99592C2.40987 10.8776 3.12239 11.5901 4.00409 11.5993L4.43876 11.6038C4.85681 11.6081 5.25701 11.7739 5.55569 12.0664L5.86624 12.3706C6.49616 12.9876 7.50382 12.9876 8.13374 12.3706L8.44429 12.0664C8.74297 11.7739 9.14316 11.6081 9.56122 11.6038L9.99589 11.5993C10.8776 11.5901 11.5901 10.8776 11.5993 9.99592L11.6038 9.56125C11.6081 9.1432 11.7739 8.743 12.0664 8.44432L12.3706 8.13377C12.9876 7.50385 12.9876 6.49619 12.3706 5.86627L12.0664 5.55572C11.7739 5.25704 11.6081 4.85685 11.6038 4.43879L11.5993 4.00412C11.5901 3.12242 10.8776 2.4099 9.99589 2.40075L9.56122 2.39624C9.14317 2.3919 8.74297 2.22614 8.44429 1.93359Z" stroke="#58A544" stroke-linecap="round"/>
<path opacity="0.4" d="M5.05573 8.9443L8.94436 5.05566" stroke="#58A544" stroke-linecap="round"/>
<path opacity="0.4" d="M5.25 5.25H5.25583" stroke="#58A544" stroke-linecap="round"/>
<path opacity="0.4" d="M8.75 8.75H8.75583" stroke="#58A544" stroke-linecap="round"/>
</g>
<defs>
<clipPath id="clip0_1_745">
<rect width="14" height="14" fill="white"/>
</clipPath>
</defs>
</svg>
