<svg width="10" height="10" viewBox="0 0 10 10" fill="none" xmlns="http://www.w3.org/2000/svg">
<g clip-path="url(#clip0_1_870)">
<path d="M0.833328 4.99998H2.4537M5 0.833313V2.45368M5 7.54628V9.16665M7.54629 4.99998H9.16666M8.35648 4.99998C8.35648 6.85371 6.85373 8.35646 5 8.35646C3.14626 8.35646 1.64351 6.85371 1.64351 4.99998C1.64351 3.14625 3.14626 1.6435 5 1.6435C6.85373 1.6435 8.35648 3.14625 8.35648 4.99998Z" stroke="#696969" stroke-width="0.5" stroke-linecap="round"/>
<path opacity="0.4" d="M6.04166 4.99998C6.04166 5.57528 5.57529 6.04165 4.99999 6.04165C4.4247 6.04165 3.95833 5.57528 3.95833 4.99998C3.95833 4.42468 4.4247 3.95831 4.99999 3.95831C5.57529 3.95831 6.04166 4.42468 6.04166 4.99998Z" stroke="#696969" stroke-width="0.5" stroke-linecap="round"/>
</g>
<defs>
<clipPath id="clip0_1_870">
<rect width="10" height="10" fill="white"/>
</clipPath>
</defs>
</svg>
