<svg width="29" height="29" viewBox="0 0 29 29" fill="none" xmlns="http://www.w3.org/2000/svg">
<g filter="url(#filter0_d_8_29)">
<path fill-rule="evenodd" clip-rule="evenodd" d="M19.9654 18.9706C20.6894 18.8632 21.6222 18.8423 22.9026 18.8385C21.9919 21.0466 20.0652 22.714 17.6928 23.2704L17.6873 23.2718C17.6992 22.3507 17.7322 21.6403 17.8224 21.0666C17.9404 20.316 18.142 19.9011 18.4433 19.6C18.7515 19.2918 19.1792 19.0873 19.9654 18.9706ZM18.0891 4.0403C15.7284 3.48656 13.2716 3.48656 10.911 4.0403C7.50184 4.83997 4.83998 7.50183 4.04031 10.9109C3.48656 13.2716 3.48656 15.7284 4.04031 18.0891C4.83998 21.4982 7.50184 24.16 10.911 24.9597C12.8938 25.4248 14.9443 25.4992 16.9488 25.183C17.3309 25.1228 17.7111 25.0484 18.0891 24.9597C21.4982 24.16 24.16 21.4982 24.9597 18.0891C25.5135 15.7284 25.5135 13.2716 24.9597 10.9109C24.16 7.50184 21.4982 4.83997 18.0891 4.0403ZM10.3358 11.0298C10.3358 10.6465 10.6465 10.3358 11.0298 10.3358H14.5C14.8833 10.3358 15.1939 10.6465 15.1939 11.0298C15.1939 11.4131 14.8833 11.7238 14.5 11.7238H11.0298C10.6465 11.7238 10.3358 11.4131 10.3358 11.0298ZM10.3358 14.5C10.3358 14.1167 10.6465 13.8059 11.0298 13.8059H16.8134C17.1968 13.8059 17.5074 14.1167 17.5074 14.5C17.5074 14.8833 17.1968 15.1939 16.8134 15.1939H11.0298C10.6465 15.1939 10.3358 14.8833 10.3358 14.5Z" fill="white"/>
</g>
<defs>
<filter id="filter0_d_8_29" x="3.625" y="3.625" width="21.75" height="23.75" filterUnits="userSpaceOnUse" color-interpolation-filters="sRGB">
<feFlood flood-opacity="0" result="BackgroundImageFix"/>
<feColorMatrix in="SourceAlpha" type="matrix" values="0 0 0 0 0 0 0 0 0 0 0 0 0 0 0 0 0 0 127 0" result="hardAlpha"/>
<feOffset dy="2"/>
<feComposite in2="hardAlpha" operator="out"/>
<feColorMatrix type="matrix" values="0 0 0 0 0 0 0 0 0 0 0 0 0 0 0 0 0 0 0.25 0"/>
<feBlend mode="normal" in2="BackgroundImageFix" result="effect1_dropShadow_8_29"/>
<feBlend mode="normal" in="SourceGraphic" in2="effect1_dropShadow_8_29" result="shape"/>
</filter>
</defs>
</svg>
