<svg width="33" height="33" viewBox="0 0 33 33" fill="none" xmlns="http://www.w3.org/2000/svg">
<g filter="url(#filter0_d_8_46)">
<path fill-rule="evenodd" clip-rule="evenodd" d="M4.59759 12.4159C3.96747 15.1022 3.96747 17.8978 4.59759 20.5842C5.50755 24.4634 8.53657 27.4924 12.4159 28.4024C15.1022 29.0326 17.8978 29.0326 20.5842 28.4024C24.4635 27.4924 27.4924 24.4634 28.4024 20.584C29.0326 17.8978 29.0326 15.1022 28.4024 12.4159C27.4924 8.53656 24.4635 5.50755 20.5842 4.59759C17.8978 3.96746 15.1022 3.96748 12.4159 4.59759C8.53658 5.50755 5.50755 8.53656 4.59759 12.4159ZM17.553 20.9096C17.553 21.4548 17.1109 21.8967 16.5657 21.8967C16.0205 21.8967 15.5786 21.4548 15.5786 20.9096C15.5786 20.3644 16.0205 19.9224 16.5657 19.9224C17.1109 19.9224 17.553 20.3644 17.553 20.9096ZM14.6572 13.7359C14.6572 12.7182 15.4822 11.8931 16.5 11.8931C17.5176 11.8931 18.3428 12.7182 18.3428 13.7359V13.8956C18.3428 14.4266 18.1317 14.9361 17.7562 15.3116L15.9415 17.1263C15.6331 17.4347 15.6331 17.9347 15.9415 18.2432C16.2499 18.5516 16.75 18.5516 17.0584 18.2432L18.8731 16.4285C19.5449 15.7567 19.9222 14.8456 19.9222 13.8956V13.7359C19.9222 11.8458 18.3901 10.3136 16.5 10.3136C14.6099 10.3136 13.0777 11.8458 13.0777 13.7359V14.394C13.0777 14.8302 13.4313 15.1838 13.8674 15.1838C14.3036 15.1838 14.6572 14.8302 14.6572 14.394V13.7359Z" fill="white"/>
</g>
<defs>
<filter id="filter0_d_8_46" x="4.125" y="4.125" width="24.75" height="26.75" filterUnits="userSpaceOnUse" color-interpolation-filters="sRGB">
<feFlood flood-opacity="0" result="BackgroundImageFix"/>
<feColorMatrix in="SourceAlpha" type="matrix" values="0 0 0 0 0 0 0 0 0 0 0 0 0 0 0 0 0 0 127 0" result="hardAlpha"/>
<feOffset dy="2"/>
<feComposite in2="hardAlpha" operator="out"/>
<feColorMatrix type="matrix" values="0 0 0 0 0 0 0 0 0 0 0 0 0 0 0 0 0 0 0.25 0"/>
<feBlend mode="normal" in2="BackgroundImageFix" result="effect1_dropShadow_8_46"/>
<feBlend mode="normal" in="SourceGraphic" in2="effect1_dropShadow_8_46" result="shape"/>
</filter>
</defs>
</svg>
