<svg width="14" height="14" viewBox="0 0 14 14" fill="none" xmlns="http://www.w3.org/2000/svg">
<path fill-rule="evenodd" clip-rule="evenodd" d="M4.47193 1.16669H9.52804C11.5138 1.16669 12.8333 2.58404 12.8333 4.61811V9.38195C12.8333 11.4161 11.5137 12.8334 9.52746 12.8334H4.47193C2.48619 12.8334 1.16666 11.416 1.16666 9.38195V4.61811C1.16666 2.58574 2.48933 1.16669 4.47193 1.16669ZM9.52804 2.04357H4.47193C2.98794 2.04357 2.04354 3.05679 2.04354 4.61811V9.38195C2.04354 9.81659 2.11632 10.2085 2.25337 10.5479L2.9243 9.73352L3.22071 9.368C3.96684 8.44354 4.65083 8.04425 5.54667 8.41945C5.68271 8.47655 5.79906 8.53815 5.94795 8.63009L6.3333 8.8787C6.71818 9.12271 6.90141 9.15771 7.18287 9.00523C7.43312 8.86984 7.60858 8.68049 7.8754 8.2697L8.05057 7.99105L8.16969 7.79995C8.27679 7.63078 8.35309 7.51971 8.44648 7.39879C9.06377 6.59991 10.0263 6.33975 10.8676 6.8459C11.232 7.06547 11.4966 7.28346 11.9565 7.72219V4.61811C11.9565 3.05487 11.015 2.04357 9.52804 2.04357ZM11.9565 8.9336L11.9279 8.9081C11.8671 8.85216 11.8021 8.7908 11.7241 8.71607L11.3161 8.32337C10.9249 7.9519 10.7011 7.76938 10.4153 7.59712C9.98304 7.33707 9.50179 7.46715 9.14047 7.93475L9.06738 8.03322C9.04312 8.06723 9.01844 8.10322 8.99184 8.14335L8.76347 8.5056C8.33279 9.2035 8.0714 9.52142 7.60042 9.77634C7.02035 10.0906 6.54767 10.0253 5.97286 9.6861L5.71742 9.52445L5.5026 9.3858C5.38331 9.31171 5.29803 9.2661 5.20766 9.22818C4.81657 9.06432 4.46906 9.24545 3.98915 9.81431L2.93543 11.1017C2.87853 11.1705 2.81972 11.2416 2.75872 11.3153C3.17683 11.7261 3.76226 11.9565 4.47193 11.9565H9.52746C11.0148 11.9565 11.9565 10.9452 11.9565 9.38195V8.9336ZM3.65812 5.13325C3.65812 4.29554 4.33775 3.61565 5.17513 3.61565C6.01299 3.61565 6.69275 4.29541 6.69275 5.13325C6.69275 5.97108 6.01299 6.65084 5.17513 6.65084C4.33775 6.65084 3.65812 5.97096 3.65812 5.13325ZM5.81585 5.13325C5.81585 4.7797 5.52868 4.49254 5.17513 4.49254C4.82211 4.49254 4.535 4.77975 4.535 5.13325C4.535 5.48675 4.82211 5.77396 5.17513 5.77396C5.52868 5.77396 5.81585 5.4868 5.81585 5.13325Z" fill="#58A544"/>
</svg>
