<svg width="20" height="20" viewBox="0 0 20 20" fill="none" xmlns="http://www.w3.org/2000/svg">
<path fill-rule="evenodd" clip-rule="evenodd" d="M8.17256 1.07258C8.50067 1.17977 8.67975 1.53266 8.57256 1.86077L8.11658 3.25645C7.87255 4.00338 7.33966 4.62152 6.63685 4.97293L4.78346 5.89962C4.32833 6.12719 3.99998 6.54773 3.8896 7.04447L2.27675 14.3023C2.20188 14.6392 1.86801 14.8517 1.53106 14.7768C1.1941 14.7019 0.981641 14.368 1.05652 14.0311L2.66936 6.7733C2.8614 5.90912 3.43264 5.17749 4.22445 4.78159L6.07783 3.8549C6.48181 3.65291 6.78812 3.2976 6.92838 2.86826L7.38436 1.47258C7.49156 1.14447 7.84445 0.965379 8.17256 1.07258ZM11.8274 1.07258C12.1555 0.965379 12.5084 1.14447 12.6156 1.47258L13.0716 2.86826C13.2118 3.2976 13.5181 3.65291 13.9221 3.8549L15.7755 4.78159C16.5673 5.17749 17.1385 5.90912 17.3306 6.7733L18.9434 14.0311C19.0183 14.368 18.8058 14.7019 18.4689 14.7768C18.1319 14.8517 17.7981 14.6392 17.7232 14.3023L16.1103 7.04447C16 6.54773 15.6716 6.12719 15.2165 5.89962L13.3631 4.97293C12.6603 4.62152 12.1274 4.00338 11.8834 3.25645L12.4775 3.06236L11.8834 3.25645L11.4274 1.86077C11.3202 1.53266 11.4993 1.17977 11.8274 1.07258ZM8.61108 5.6713C8.95626 5.6713 9.23608 5.95112 9.23608 6.2963V7.13874C9.23608 7.59513 9.12982 8.04525 8.92572 8.45346L8.24417 9.81655C8.08981 10.1253 7.71438 10.2504 7.40565 10.0961C7.09691 9.94169 6.97177 9.56627 7.12614 9.25753L7.80768 7.89445C7.925 7.65981 7.98608 7.40107 7.98608 7.13874V6.2963C7.98608 5.95112 8.2659 5.6713 8.61108 5.6713ZM11.3889 5.6713C11.734 5.6713 12.0139 5.95112 12.0139 6.2963V7.13874C12.0139 7.40107 12.0749 7.65981 12.1923 7.89444L11.6332 8.17395L12.1923 7.89445L12.8738 9.25753C13.0282 9.56627 12.903 9.94169 12.5943 10.0961C12.2856 10.2504 11.9101 10.1253 11.7558 9.81655L11.0742 8.45346C10.8701 8.04525 10.7639 7.59513 10.7639 7.13874V6.2963C10.7639 5.95112 11.0437 5.6713 11.3889 5.6713ZM4.68793 9.87776C5.01113 9.75656 5.37138 9.92032 5.49258 10.2435L6.73409 13.5542C6.85787 13.8843 6.92127 14.2339 6.92127 14.5864V18.3333C6.92127 18.6785 6.64145 18.9583 6.29627 18.9583C5.95109 18.9583 5.67127 18.6785 5.67127 18.3333V14.5864C5.67127 14.3838 5.63482 14.1828 5.56368 13.9931L4.32217 10.6824C4.20097 10.3592 4.36473 9.99896 4.68793 9.87776ZM15.312 9.87776C15.6352 9.99896 15.799 10.3592 15.6778 10.6824L14.4363 13.9931C14.3651 14.1828 14.3287 14.3838 14.3287 14.5864V18.3333C14.3287 18.6785 14.0489 18.9583 13.7037 18.9583C13.3585 18.9583 13.0787 18.6785 13.0787 18.3333V14.5864C13.0787 14.2339 13.1421 13.8843 13.2659 13.5542L14.5074 10.2435C14.6286 9.92032 14.9888 9.75656 15.312 9.87776Z" fill="#777777"/>
</svg>
