<svg width="20" height="20" viewBox="0 0 20 20" fill="none" xmlns="http://www.w3.org/2000/svg">
<g clip-path="url(#clip0_1_1125)">
<path d="M1.84495 10.0776L2.59322 10.1284L1.84495 10.0776ZM1.67208 12.621L0.923808 12.5702L1.67208 12.621ZM18.3281 12.621L19.0764 12.5702L18.3281 12.621ZM18.1556 10.0839L17.4074 10.1347L18.1556 10.0839ZM16.0522 7.95638L15.9887 8.70368L16.0522 7.95638ZM3.9412 7.95269L4.00567 8.69992L3.9412 7.95269ZM4.31917 3.34557L5.03925 3.55532L4.31917 3.34557ZM15.681 3.34557L16.4011 3.13583V3.13583L15.681 3.34557ZM8.58412 10.8704C8.1699 10.8704 7.83412 11.2062 7.83412 11.6204C7.83412 12.0346 8.1699 12.3704 8.58412 12.3704V11.6204V10.8704ZM11.416 12.3704C11.8303 12.3704 12.166 12.0346 12.166 11.6204C12.166 11.2062 11.8303 10.8704 11.416 10.8704V11.6204V12.3704ZM10.7501 1.66669C10.7501 1.25247 10.4143 0.916687 10.0001 0.916687C9.58587 0.916687 9.25008 1.25247 9.25008 1.66669H10.0001H10.7501ZM8.58412 3.2315C8.1699 3.2315 7.83412 3.56729 7.83412 3.9815C7.83412 4.39572 8.1699 4.7315 8.58412 4.7315V3.9815V3.2315ZM11.416 4.7315C11.8303 4.7315 12.166 4.39572 12.166 3.9815C12.166 3.56729 11.8303 3.2315 11.416 3.2315V3.9815V4.7315ZM3.62824 14.6297H2.87824V16.713H3.62824H4.37824V14.6297H3.62824ZM6.93216 16.713H7.68216V14.6297H6.93216H6.18216V16.713H6.93216ZM5.2802 18.3334V19.0834C6.59304 19.0834 7.68216 18.0357 7.68216 16.713H6.93216H6.18216C6.18216 17.1801 5.79205 17.5834 5.2802 17.5834V18.3334ZM3.62824 16.713H2.87824C2.87824 18.0357 3.96735 19.0834 5.2802 19.0834V18.3334V17.5834C4.76834 17.5834 4.37824 17.1801 4.37824 16.713H3.62824ZM13.068 14.6297H12.318V16.713H13.068H13.818V14.6297H13.068ZM16.3719 16.713H17.1219V14.6297H16.3719H15.6219V16.713H16.3719ZM14.72 18.3334V19.0834C16.0328 19.0834 17.1219 18.0357 17.1219 16.713H16.3719H15.6219C15.6219 17.1801 15.2318 17.5834 14.72 17.5834V18.3334ZM13.068 16.713H12.318C12.318 18.0357 13.4071 19.0834 14.72 19.0834V18.3334V17.5834C14.2081 17.5834 13.818 17.1801 13.818 16.713H13.068ZM1.84495 10.0776L1.09668 10.0267L0.923808 12.5702L1.67208 12.621L2.42036 12.6719L2.59322 10.1284L1.84495 10.0776ZM4.0268 15.0898V15.8398H15.9734V15.0898V14.3398H4.0268V15.0898ZM18.3281 12.621L19.0764 12.5702L18.9039 10.033L18.1556 10.0839L17.4074 10.1347L17.5798 12.6719L18.3281 12.621ZM16.0522 7.95638L16.1157 7.20907C11.8985 6.85065 8.13025 6.83847 3.87672 7.20547L3.9412 7.95269L4.00567 8.69992C8.17081 8.34054 11.8534 8.35222 15.9887 8.70368L16.0522 7.95638ZM18.1556 10.0839L18.9039 10.033C18.8026 8.54184 17.625 7.33734 16.1157 7.20907L16.0522 7.95638L15.9887 8.70368C16.7618 8.76939 17.3563 9.38376 17.4074 10.1347L18.1556 10.0839ZM15.9734 15.0898V15.8398C17.7576 15.8398 19.1976 14.3544 19.0764 12.5702L18.3281 12.621L17.5798 12.6719C17.6402 13.5598 16.9194 14.3398 15.9734 14.3398V15.0898ZM1.67208 12.621L0.923808 12.5702C0.802538 14.3544 2.24256 15.8398 4.0268 15.8398V15.0898V14.3398C3.08075 14.3398 2.36001 13.5598 2.42036 12.6719L1.67208 12.621ZM1.84495 10.0776L2.59322 10.1284C2.64416 9.37905 3.23595 8.76633 4.00567 8.69992L3.9412 7.95269L3.87672 7.20547C2.37 7.33547 1.19775 8.53953 1.09668 10.0267L1.84495 10.0776ZM2.92025 8.14817L3.64033 8.35791L5.03925 3.55532L4.31917 3.34557L3.5991 3.13583L2.20018 7.93842L2.92025 8.14817ZM6.58832 1.66669V2.41669H13.4118V1.66669V0.916687H6.58832V1.66669ZM15.681 3.34557L14.9609 3.55532L16.3598 8.35791L17.0799 8.14817L17.8 7.93842L16.4011 3.13583L15.681 3.34557ZM13.4118 1.66669V2.41669C14.1405 2.41669 14.767 2.88968 14.9609 3.55532L15.681 3.34557L16.4011 3.13583C16.016 1.81396 14.7906 0.916687 13.4118 0.916687V1.66669ZM4.31917 3.34557L5.03925 3.55532C5.23314 2.88968 5.85968 2.41669 6.58832 2.41669V1.66669V0.916687C5.20961 0.916687 3.98414 1.81396 3.5991 3.13583L4.31917 3.34557ZM8.58412 11.6204V12.3704H11.416V11.6204V10.8704H8.58412V11.6204ZM10.0001 1.66669H9.25008V3.9815H10.0001H10.7501V1.66669H10.0001ZM8.58412 3.9815V4.7315H10.0001V3.9815V3.2315H8.58412V3.9815ZM10.0001 3.9815V4.7315H11.416V3.9815V3.2315H10.0001V3.9815Z" fill="#777777"/>
<path d="M5 11.6667H5.01M14.99 11.6667H15" stroke="#777777" stroke-width="2" stroke-linecap="round" stroke-linejoin="round"/>
</g>
<defs>
<clipPath id="clip0_1_1125">
<rect width="20" height="20" fill="white"/>
</clipPath>
</defs>
</svg>
