<svg width="20" height="20" viewBox="0 0 20 20" fill="none" xmlns="http://www.w3.org/2000/svg">
<path fill-rule="evenodd" clip-rule="evenodd" d="M3.54163 4.16669C3.54163 2.4408 4.94074 1.04169 6.66663 1.04169H13.3333C15.0592 1.04169 16.4583 2.4408 16.4583 4.16669V15.8334C16.4583 17.5592 15.0592 18.9584 13.3333 18.9584H6.66663C4.94074 18.9584 3.54163 17.5592 3.54163 15.8334V4.16669ZM11.8541 2.29169H8.1458C8.24231 2.76715 8.66268 3.12502 9.16663 3.12502H10.8333C11.3372 3.12502 11.7576 2.76715 11.8541 2.29169ZM6.8843 2.29169C6.98956 3.45971 7.9712 4.37502 9.16663 4.37502H10.8333C12.0287 4.37502 13.0104 3.45971 13.1156 2.29169H13.3333C14.3688 2.29169 15.2083 3.13115 15.2083 4.16669V15.8334C15.2083 16.8689 14.3688 17.7084 13.3333 17.7084H6.66663C5.63109 17.7084 4.79163 16.8689 4.79163 15.8334V4.16669C4.79163 3.13115 5.63109 2.29169 6.66663 2.29169H6.8843Z" fill="#777777"/>
<path fill-rule="evenodd" clip-rule="evenodd" d="M11.05 15C11.05 15.5753 10.5837 16.0417 10.0084 16.0417L10 16.0417C9.42475 16.0417 8.95838 15.5753 8.95838 15C8.95838 14.4247 9.42475 13.9584 10 13.9584L10.0084 13.9584C10.5837 13.9584 11.05 14.4247 11.05 15Z" fill="#777777"/>
</svg>
