<svg width="24" height="24" viewBox="0 0 24 24" fill="none" xmlns="http://www.w3.org/2000/svg">
<path fill-rule="evenodd" clip-rule="evenodd" d="M11.8914 1.98071C13.4936 1.98071 15.0897 2.37595 16.5079 3.12365C21.3362 5.67129 23.1931 11.6722 20.6472 16.5022C18.9108 19.7958 15.4917 21.7885 11.8801 21.7885C11.1745 21.7885 10.4619 21.7127 9.75281 21.5556C9.35336 21.4666 9.10129 21.0705 9.18938 20.6709C9.27747 20.2713 9.67257 20.0209 10.0747 20.1073C13.7631 20.9274 17.5711 19.1572 19.3354 15.8103C21.5002 11.7045 19.9215 6.60135 15.8162 4.43586C14.6109 3.79982 13.2537 3.46392 11.8906 3.46392H11.881C7.24006 3.46392 3.46352 7.24087 3.46352 11.8833C3.46177 13.2356 3.79145 14.5819 4.41681 15.7781L4.60694 16.1498C4.83981 16.586 4.89127 17.1278 4.74039 17.6181C4.53193 18.1678 4.35837 18.7026 4.21533 19.2348C4.77178 19.0672 5.45121 18.8203 5.94225 18.6415L6.14372 18.5691C6.52487 18.4269 6.95311 18.6284 7.09266 19.0141C7.2322 19.3988 7.03248 19.8246 6.64784 19.9634L6.44899 20.0358L6.41514 20.048C5.68398 20.313 4.69949 20.6697 4.03131 20.8193C3.97374 20.8314 3.91182 20.8393 3.85513 20.8376C3.39984 20.8376 3.12249 20.6535 2.96986 20.4982C2.73524 20.26 2.6236 19.9258 2.63669 19.5053C2.63843 19.4573 2.64453 19.4075 2.65587 19.3596C2.83205 18.6093 3.06144 17.8607 3.3388 17.1356C3.35885 17.065 3.34664 16.9367 3.28995 16.8294L3.09894 16.4586C2.36718 15.0573 1.97906 13.4721 1.98081 11.8825C1.98081 6.42249 6.42196 1.98071 11.8801 1.98071H11.8914ZM6.34197 11.8837C6.34197 11.2337 6.86964 10.7059 7.51942 10.7059C8.16919 10.7059 8.69687 11.2337 8.69687 11.8837C8.69687 12.5328 8.16919 13.0607 7.51942 13.0607C6.86964 13.0607 6.34197 12.5328 6.34197 11.8837ZM13.0578 11.8834C13.0578 11.2342 12.5302 10.7056 11.8804 10.7056C11.2307 10.7056 10.703 11.2342 10.703 11.8834C10.703 12.5325 11.2307 13.0612 11.8804 13.0612C12.5302 13.0612 13.0578 12.5325 13.0578 11.8834ZM16.2414 10.7056C16.891 10.7056 17.4187 11.2342 17.4187 11.8834C17.4187 12.5325 16.891 13.0612 16.2414 13.0612C15.5916 13.0612 15.0639 12.5325 15.0639 11.8834C15.0639 11.2342 15.5916 10.7056 16.2414 10.7056Z" fill="#4C4C4C"/>
</svg>
