<svg width="24" height="24" viewBox="0 0 24 24" fill="none" xmlns="http://www.w3.org/2000/svg">
<path fill-rule="evenodd" clip-rule="evenodd" d="M19.9585 7.51838C20.6637 8.08552 21.0777 8.93876 21.0867 9.84365L21.0781 17.7409C21.0781 19.886 19.3392 21.625 17.1941 21.625H15.4716C14.4333 21.625 13.5903 20.7859 13.5856 19.7475V16.1821C13.5856 15.9063 13.3619 15.6827 13.086 15.6827H10.5024C10.3685 15.6826 10.24 15.7365 10.1461 15.8319C10.0523 15.9275 10.0007 16.0568 10.0029 16.1908V17.5515C10.0029 17.9795 9.65591 18.3265 9.22784 18.3265C8.79977 18.3265 8.45275 17.9795 8.45275 17.5515V16.1908C8.45275 15.6448 8.6696 15.1213 9.05561 14.7354C9.44161 14.3493 9.9652 14.1325 10.511 14.1325H13.0946C14.228 14.1372 15.1444 15.0573 15.1444 16.1908V19.7475C15.1444 19.9283 15.2908 20.0749 15.4716 20.0749H17.237C18.5213 20.0749 19.5624 19.0338 19.5624 17.7495V9.86087C19.556 9.42385 19.3537 9.0128 19.0112 8.74129L13.0603 3.99603C12.3098 3.37822 11.2271 3.37822 10.4766 3.99603L8.56471 5.42564C8.21036 5.6801 7.71683 5.59913 7.46236 5.24478C7.2079 4.89043 7.28887 4.3969 7.64321 4.14243L9.52926 2.77311C10.8369 1.72195 12.6999 1.72195 14.0076 2.77311L19.9585 7.51838ZM6.36001 20.0663H10.3215V20.0834C10.7497 20.0834 11.0966 20.4304 11.0966 20.8586C11.0966 21.2866 10.7497 21.6336 10.3215 21.6336H6.36001C4.21687 21.6289 2.48069 19.8927 2.47595 17.7495V9.86087C2.48966 8.94928 2.91755 8.09351 3.63858 7.5356L4.35339 7.00165C4.68999 6.84297 5.09186 6.9459 5.31074 7.24686C5.52962 7.54781 5.50372 7.96184 5.24905 8.23318L4.55147 8.74991C4.22093 9.02451 4.02865 9.43115 4.02613 9.86087V17.7409C4.03556 19.0246 5.07634 20.0615 6.36001 20.0663Z" fill="#4C4C4C"/>
</svg>
