<svg width="24" height="24" viewBox="0 0 24 24" fill="none" xmlns="http://www.w3.org/2000/svg">
<path fill-rule="evenodd" clip-rule="evenodd" d="M11.8846 1.98071H11.9177C16.559 1.99896 20.3211 5.78577 20.3029 10.4211V10.5132C20.2402 13.8258 18.2487 16.5747 16.5894 18.297C16.1172 18.7894 15.6146 19.262 15.0962 19.7032C14.7857 19.9681 14.3197 19.9317 14.0544 19.6216C13.7892 19.3106 13.8265 18.8451 14.137 18.5802C14.6171 18.1711 15.084 17.7316 15.5233 17.2739C17 15.7418 18.7706 13.3194 18.8245 10.4863C18.8392 6.59437 15.7389 3.47199 11.9116 3.45636H11.8846C8.07031 3.45636 4.95955 6.54834 4.94477 10.3603C5.00999 12.2434 5.64658 14.0334 6.7867 15.5351C8.11727 17.3069 10.1358 19.1829 12.0542 20.4319C12.3968 20.6543 12.4934 21.1111 12.2698 21.4533C12.129 21.6704 11.8916 21.7885 11.6498 21.7885C11.5115 21.7885 11.3724 21.7503 11.2472 21.6687C9.19304 20.332 7.03107 18.3222 5.60571 16.4245C4.28296 14.6813 3.54288 12.6012 3.46635 10.4116C3.48462 5.73019 7.25805 1.98071 11.8846 1.98071ZM10.1566 10.512C10.1566 11.4614 10.9306 12.2352 11.882 12.2352C12.8334 12.2352 13.6074 11.4614 13.6074 10.512C13.6074 9.5619 12.8334 8.78804 11.882 8.78804C11.4742 8.78804 11.1428 8.45799 11.1428 8.05066C11.1428 7.64244 11.4742 7.3124 11.882 7.3124C13.6483 7.3124 15.0858 8.74722 15.0858 10.512C15.0858 12.276 13.6483 13.7109 11.882 13.7109C10.1157 13.7109 8.6782 12.276 8.6782 10.512C8.6782 10.1039 9.00954 9.77383 9.41741 9.77383C9.82527 9.77383 10.1566 10.1039 10.1566 10.512Z" fill="#4C4C4C"/>
</svg>
