<svg width="24" height="24" viewBox="0 0 24 24" fill="none" xmlns="http://www.w3.org/2000/svg">
<path fill-rule="evenodd" clip-rule="evenodd" d="M7.98094 7.28314C7.98094 5.14394 9.73201 3.40387 11.8847 3.40387C14.0374 3.40387 15.7884 5.14394 15.7884 7.28314C15.7884 9.42134 14.0374 11.1614 11.8847 11.1614C9.73201 11.1614 7.98094 9.42134 7.98094 7.28314ZM6.5488 7.28314C6.5488 10.2057 8.94268 12.5845 11.8847 12.5845C14.8268 12.5845 17.2196 10.2057 17.2196 7.28314C17.2196 4.35957 14.8268 1.98071 11.8847 1.98071C8.94268 1.98071 6.5488 4.35957 6.5488 7.28314ZM10.8721 21.7737C11.204 21.7836 11.5418 21.7885 11.8847 21.7885C15.2862 21.7885 19.8078 21.4112 19.8078 18.1539C19.8078 14.4985 13.8441 14.4985 11.8847 14.4985C8.48323 14.4985 3.96157 14.8758 3.96157 18.1341C3.96157 19.1096 4.41802 20.4258 6.59265 21.1577C6.96837 21.2864 7.373 21.0834 7.50057 20.712C7.62714 20.3406 7.42682 19.9375 7.05209 19.8117C5.56413 19.3107 5.39272 18.6144 5.39272 18.1341C5.39272 16.6654 7.57731 15.9206 11.8847 15.9206C16.1921 15.9206 18.3767 16.6723 18.3767 18.1539C18.3767 19.6217 16.1921 20.3654 11.8847 20.3654C11.5558 20.3654 11.2319 20.3614 10.913 20.3525C10.5303 20.3554 10.1895 20.6506 10.1785 21.0428C10.1666 21.436 10.4775 21.7638 10.8721 21.7737Z" fill="#4C4C4C"/>
</svg>
