<svg width="14" height="14" viewBox="0 0 14 14" fill="none" xmlns="http://www.w3.org/2000/svg">
<path d="M7 11.0833C7 11.0833 11.0833 7.32407 11.0833 5.13334C11.0833 2.94261 9.25516 1.16667 7 1.16667C4.74483 1.16667 2.91666 2.94261 2.91666 5.13334C2.91666 7.32407 7 11.0833 7 11.0833Z" stroke="#878787" stroke-linecap="round"/>
<path opacity="0.4" d="M9.88735 10.3438C10.4584 10.5478 10.8473 10.8076 11.0049 11.0905C11.1624 11.3734 11.0816 11.6666 10.7725 11.9331C10.4634 12.1996 9.94008 12.4273 9.26858 12.5876C8.59708 12.7478 7.80761 12.8333 7 12.8333C6.19239 12.8333 5.40292 12.7478 4.73142 12.5876C4.05992 12.4273 3.53655 12.1996 3.22749 11.9331C2.91843 11.6666 2.83757 11.3734 2.99513 11.0905C3.15268 10.8076 3.54158 10.5478 4.11265 10.3438" stroke="#878787" stroke-linecap="round"/>
<path opacity="0.4" d="M7 6.70833C7.84569 6.70833 8.53125 6.02276 8.53125 5.17708C8.53125 4.33139 7.84569 3.64583 7 3.64583C6.15431 3.64583 5.46875 4.33139 5.46875 5.17708C5.46875 6.02276 6.15431 6.70833 7 6.70833Z" stroke="#878787" stroke-linecap="round"/>
</svg>
