<svg width="115" height="27" viewBox="0 0 115 27" fill="none" xmlns="http://www.w3.org/2000/svg">
<path d="M24.82 10.28V15.16C24.82 16.04 24.6 16.8533 24.16 17.6C23.7333 18.3333 23.1467 18.92 22.4 19.36C21.6667 19.7867 20.8667 20 20 20C19.4667 20 18.94 19.9133 18.42 19.74C17.9133 19.5533 17.4467 19.3 17.02 18.98C16.62 19.3 16.1667 19.5533 15.66 19.74C15.1533 19.9133 14.6267 20 14.08 20H13V21C13 21.88 12.78 22.6933 12.34 23.44C11.9133 24.1867 11.3267 24.78 10.58 25.22C9.83333 25.66 9.02 25.88 8.14 25.88H6.14C5.26 25.88 4.44667 25.66 3.7 25.22C2.95333 24.78 2.36 24.1867 1.92 23.44C1.48 22.6933 1.26 21.88 1.26 21V15.2L5.02 14.28V21C5.02 21.3067 5.12667 21.5667 5.34 21.78C5.56667 22.0067 5.83333 22.12 6.14 22.12H8.14C8.43333 22.12 8.68667 22.0067 8.9 21.78C9.12667 21.5667 9.24 21.3067 9.24 21V11.24H13V16.22H14.08C14.3867 16.22 14.64 16.12 14.84 15.92C15.0533 15.7067 15.16 15.4467 15.16 15.14V11.24H18.94V15.16C18.94 15.4533 19.04 15.7067 19.24 15.92C19.4533 16.12 19.7067 16.22 20 16.22C20.3067 16.22 20.56 16.12 20.76 15.92C20.96 15.7067 21.06 15.4533 21.06 15.16V11.22L24.82 10.28ZM26.1711 16.22H30.2311V15.12C30.2311 14.8133 30.1178 14.5533 29.8911 14.34C29.6778 14.1267 29.4178 14.02 29.1111 14.02H26.2311V10.24H29.1111C29.9911 10.24 30.8044 10.46 31.5511 10.9C32.2978 11.34 32.8844 11.9333 33.3111 12.68C33.7511 13.4267 33.9711 14.24 33.9711 15.12V20H26.1711V16.22ZM53.6192 18.12L54.2992 16.22H58.2992L58.9792 18.18L58.2992 20H54.2992L53.6192 18.12ZM57.8431 20L57.2231 18.12L57.8631 16.22H57.9031C58.2098 16.22 58.4698 16.1133 58.6831 15.9C58.8965 15.6867 59.0031 15.4267 59.0031 15.12V11.24H62.7831V15.16C62.7831 15.4533 62.8831 15.7067 63.0831 15.92C63.2965 16.12 63.5498 16.22 63.8431 16.22C64.1365 16.22 64.3831 16.12 64.5831 15.92C64.7965 15.7067 64.9031 15.4533 64.9031 15.16V11.24H68.6831V15.16C68.6831 15.4533 68.7831 15.7067 68.9831 15.92C69.1965 16.12 69.4498 16.22 69.7431 16.22C70.0365 16.22 70.2831 16.12 70.4831 15.92C70.6965 15.7067 70.8031 15.4533 70.8031 15.16V11.22L74.5631 10.28V15.16C74.5631 16.04 74.3431 16.8533 73.9031 17.6C73.4765 18.3333 72.8898 18.92 72.1431 19.36C71.4098 19.7867 70.6098 20 69.7431 20C68.6765 20 67.6965 19.6667 66.8031 19C66.3898 19.32 65.9231 19.5667 65.4031 19.74C64.8965 19.9133 64.3765 20 63.8431 20C63.3098 20 62.7831 19.9067 62.2631 19.72C61.7565 19.5333 61.2965 19.2867 60.8831 18.98C59.9631 19.66 58.9698 20 57.9031 20H57.8431ZM75.5136 6.42L79.4736 5.42V6.4L75.5136 7.36V6.42ZM75.5102 16.22H79.5702V15.12C79.5702 14.8133 79.4568 14.5533 79.2302 14.34C79.0168 14.1267 78.7568 14.02 78.4502 14.02H75.5702V10.24H78.4502C79.3302 10.24 80.1435 10.46 80.8902 10.9C81.6368 11.34 82.2235 11.9333 82.6502 12.68C83.0902 13.4267 83.3102 14.24 83.3102 15.12V20H75.5102V16.22Z" fill="#58A544"/>
<path d="M41.9712 20C41.0912 20 40.2779 19.78 39.5312 19.34C38.7846 18.9 38.1912 18.3067 37.7512 17.56C37.3112 16.8133 37.0912 16 37.0912 15.12C37.0912 14.24 37.3112 13.4267 37.7512 12.68C38.1912 11.9333 38.7846 11.34 39.5312 10.9C40.2779 10.46 41.0912 10.24 41.9712 10.24H46.8312V15.12C46.8312 15.4267 46.9379 15.6867 47.1513 15.9C47.3779 16.1133 47.6446 16.22 47.9512 16.22L48.6113 18.12L47.9512 20C46.8712 20 45.8846 19.6533 44.9912 18.96C44.5646 19.2933 44.0912 19.5533 43.5712 19.74C43.0646 19.9133 42.5312 20 41.9712 20ZM40.8512 15.12C40.8512 15.4267 40.9579 15.6867 41.1712 15.9C41.3979 16.1133 41.6646 16.22 41.9712 16.22C42.2779 16.22 42.5379 16.1133 42.7512 15.9C42.9646 15.6867 43.0712 15.4267 43.0712 15.12V14H41.9712C41.6646 14 41.3979 14.1133 41.1712 14.34C40.9579 14.5533 40.8512 14.8133 40.8512 15.12ZM47.4802 20L46.8802 18.12L47.5202 16.22H47.5602C47.8668 16.22 48.1268 16.1133 48.3402 15.9C48.5535 15.6867 48.6602 15.4267 48.6602 15.12V11.2L52.4402 10.28V15.12C52.4402 16 52.2202 16.8133 51.7802 17.56C51.3402 18.3067 50.7468 18.9 50.0002 19.34C49.2535 19.78 48.4402 20 47.5602 20H47.4802ZM46.5802 22H49.4602V24.82H46.5802V22Z" fill="#3D423B"/>
<g clip-path="url(#clip0_1_708)">
<path fill-rule="evenodd" clip-rule="evenodd" d="M96.2592 5.60006L96.8888 6.00646L97.4679 5.52459L97.5007 4.93005H96.2769L96.2592 5.60006Z" fill="#58A544"/>
<path fill-rule="evenodd" clip-rule="evenodd" d="M104.112 4.93005L103.858 5.58979L104.723 6.00646L105.359 5.54762L105.335 4.93005H104.112Z" fill="#58A544"/>
<path fill-rule="evenodd" clip-rule="evenodd" d="M103.706 1C103.124 1 102.565 1.10488 102.046 1.29692L102.201 2.78255L103.167 3.26903C103.342 3.23324 103.522 3.21482 103.706 3.21482C104.518 3.21482 105.245 3.56772 105.764 4.17607L106.973 3.63185L106.887 2.20042C106.027 1.45317 104.915 1 103.706 1Z" fill="#58A544"/>
<path fill-rule="evenodd" clip-rule="evenodd" d="M111.991 5.01048L112.033 5.55329L112.558 6.00646L112.914 5.8495L112.866 5.46542C112.613 5.25602 112.316 5.09906 111.992 5.01084L111.991 5.01048Z" fill="#58A544"/>
<path fill-rule="evenodd" clip-rule="evenodd" d="M96.8888 6.00646L98.302 10.2274L100.806 12.8968L103.747 10.5598L104.723 6.00646L100.479 5.41547L96.8888 6.00646Z" fill="#64BC4D"/>
<path fill-rule="evenodd" clip-rule="evenodd" d="M104.723 6.00646L106.136 10.0056L108.64 12.8968L111.327 10.3011L112.557 6.00646L108.349 5.45232L104.723 6.00646Z" fill="#64BC4D"/>
<path fill-rule="evenodd" clip-rule="evenodd" d="M113.346 6.00646L112.913 5.8495L112.557 6.00646L112.758 7.56332L113.781 8.15821L113.73 7.31495C113.73 6.84654 113.599 6.39798 113.346 6.00646Z" fill="#64BC4D"/>
<path fill-rule="evenodd" clip-rule="evenodd" d="M93.3438 12.8968L96.8889 19.7879L99.6113 17.155L100.806 12.8968L96.8159 11.5306L93.3438 12.8968Z" fill="#58A544"/>
<path fill-rule="evenodd" clip-rule="evenodd" d="M100.806 12.8968L101.71 17.0813L104.723 19.7879L108.209 17.4877L108.64 12.8968L104.614 12.1216L100.806 12.8968Z" fill="#58A544"/>
<path fill-rule="evenodd" clip-rule="evenodd" d="M112.012 11.7889L108.64 12.8968L109.763 16.9704L112.557 19.7879L113.872 18.5538L114.3 16.7223L114.068 12.8968L112.012 11.7889Z" fill="#58A544"/>
<path fill-rule="evenodd" clip-rule="evenodd" d="M96.8888 19.7879L94.4939 22.4576L93.3577 25.9997C93.7798 26.4189 94.3582 26.6789 94.9938 26.6789H100.806L99.793 22.6057L96.8888 19.7882V19.7879Z" fill="#64BC4D"/>
<path fill-rule="evenodd" clip-rule="evenodd" d="M104.723 19.7879L102.328 22.7896L100.806 26.6786H108.64L107.555 22.2727L104.723 19.7879Z" fill="#64BC4D"/>
<path fill-rule="evenodd" clip-rule="evenodd" d="M114.124 20.8122L112.557 19.7875L109.835 22.4204L108.64 26.6782H112.418C113.703 26.6782 114.76 25.6071 114.76 24.2993L114.716 23.5843L114.123 20.8118L114.124 20.8122Z" fill="#64BC4D"/>
<path fill-rule="evenodd" clip-rule="evenodd" d="M92.652 24.2997C92.652 24.9346 92.9136 25.5536 93.3577 25.9993L94.9304 23.2329L96.8892 19.7875H92.9722L92.6523 24.2993L92.652 24.2997Z" fill="#58A544"/>
<path fill-rule="evenodd" clip-rule="evenodd" d="M91.5538 12.9701L95.0542 6.81216H88.0736L91.5538 12.9701Z" fill="#64BC4D"/>
<path fill-rule="evenodd" clip-rule="evenodd" d="M89.0089 18.7806H94.264L91.6176 14.1256L89.0089 18.7806Z" fill="#64BC4D"/>
<path fill-rule="evenodd" clip-rule="evenodd" d="M96.8888 19.7879L98.8473 23.2332L100.806 26.6786L102.765 23.2332L104.723 19.7879H100.806H96.8888Z" fill="#58A544"/>
<path fill-rule="evenodd" clip-rule="evenodd" d="M96.024 4.93005C95.3856 4.93005 94.803 5.19544 94.3781 5.62345L94.3736 5.62805L94.3715 5.63053L94.369 5.63266C94.257 5.74675 94.1566 5.87182 94.0687 6.00646H96.8885L96.2766 4.93041H96.0237L96.024 4.93005Z" fill="#58A544"/>
<path fill-rule="evenodd" clip-rule="evenodd" d="M96.8889 6.0061L93.3438 12.8968H96.8889H100.806L98.8473 9.45181L96.8889 6.0061Z" fill="#58A544"/>
<path fill-rule="evenodd" clip-rule="evenodd" d="M100.806 12.8968L98.8473 16.3425L96.8888 19.7879H100.806H104.723L102.765 16.3425L100.806 12.8968Z" fill="#64BC4D"/>
<path fill-rule="evenodd" clip-rule="evenodd" d="M104.723 19.7879L106.682 23.2332L108.64 26.6786L110.599 23.2332L112.557 19.7879H108.64H104.723Z" fill="#58A544"/>
<path fill-rule="evenodd" clip-rule="evenodd" d="M101.188 4.93005C101.532 4.08111 102.277 3.45149 103.167 3.26902L102.765 2.56075L102.046 1.29655C100.47 1.87905 99.2722 3.25768 98.9143 4.92969H97.5007L96.8888 6.00575H104.723L104.112 4.92969H101.188V4.93005Z" fill="#58A544"/>
<path fill-rule="evenodd" clip-rule="evenodd" d="M104.723 6.0061L102.765 9.45181L100.806 12.8968H104.723H108.64L106.682 9.45181L104.723 6.0061Z" fill="#58A544"/>
<path fill-rule="evenodd" clip-rule="evenodd" d="M108.64 12.8968L106.682 16.3425L104.723 19.7879H108.64H112.557L110.599 16.3425L108.64 12.8968Z" fill="#64BC4D"/>
<path fill-rule="evenodd" clip-rule="evenodd" d="M112.557 19.7879L114.516 23.2332L114.716 23.5851L114.486 19.7879H112.557Z" fill="#58A544"/>
<path fill-rule="evenodd" clip-rule="evenodd" d="M111.388 4.93006H108.498C108.269 3.85046 107.703 2.91118 106.887 2.20078L106.682 2.56111L105.764 4.17643C105.954 4.4 106.11 4.65405 106.223 4.93041H105.335L104.723 6.00647H112.558L111.991 5.01049C111.799 4.95805 111.597 4.93006 111.388 4.93006Z" fill="#58A544"/>
<path fill-rule="evenodd" clip-rule="evenodd" d="M112.557 6.0061L110.599 9.45181L108.64 12.8968H112.557H114.068L113.781 8.15821L112.557 6.0061Z" fill="#58A544"/>
<path fill-rule="evenodd" clip-rule="evenodd" d="M112.557 19.7879H114.486L114.3 16.7223L112.557 19.7879Z" fill="#64BC4D"/>
<path fill-rule="evenodd" clip-rule="evenodd" d="M112.865 5.46507L112.558 6.00611H113.346C113.258 5.8697 113.156 5.74285 113.043 5.62806C112.987 5.57101 112.927 5.51645 112.865 5.46507Z" fill="#58A544"/>
<path fill-rule="evenodd" clip-rule="evenodd" d="M88.211 16.6022L90.435 12.6899H86L88.211 16.6022Z" fill="#64BC4D"/>
</g>
<defs>
<clipPath id="clip0_1_708">
<rect width="28.76" height="25.6786" fill="white" transform="translate(86 1)"/>
</clipPath>
</defs>
</svg>
