<svg width="10" height="10" viewBox="0 0 10 10" fill="none" xmlns="http://www.w3.org/2000/svg">
<path d="M1.72882 2.36441H4.16949C4.33627 2.36441 4.47458 2.22611 4.47458 2.05933C4.47458 1.89255 4.33627 1.75424 4.16949 1.75424H1.72882C1.56204 1.75424 1.42373 1.89255 1.42373 2.05933C1.42373 2.22611 1.56204 2.36441 1.72882 2.36441Z" fill="#4F4F4F"/>
<path d="M2.94916 3.58475H4.16949C4.33627 3.58475 4.47458 3.44644 4.47458 3.27966C4.47458 3.11288 4.33627 2.97458 4.16949 2.97458H2.94916C2.78238 2.97458 2.64407 3.11288 2.64407 3.27966C2.64407 3.44644 2.78238 3.58475 2.94916 3.58475Z" fill="#4F4F4F"/>
<path d="M5.18645 8.87287C7.48476 8.87287 9.35594 7.00169 9.35594 4.70338C9.35594 2.40508 7.48476 0.53389 5.18645 0.53389C5.01967 0.53389 4.88137 0.672195 4.88137 0.838975C4.88137 1.00575 5.01967 1.14406 5.18645 1.14406C7.1512 1.14406 8.74577 2.7427 8.74577 4.70338C8.74577 6.66406 7.1512 8.2627 5.18645 8.2627C3.2217 8.2627 1.62713 6.66406 1.62713 4.70338C1.62713 4.5366 1.48882 4.3983 1.32204 4.3983C1.15526 4.3983 1.01696 4.5366 1.01696 4.70338C1.01696 7.00169 2.88815 8.87287 5.18645 8.87287Z" fill="#4F4F4F"/>
<path d="M0.915256 9.27966C0.992544 9.27966 1.06983 9.25119 1.13085 9.19017L1.94441 8.37661C2.06237 8.25864 2.06237 8.06339 1.94441 7.94542C1.82644 7.82746 1.63119 7.82746 1.51322 7.94542L0.699662 8.75898C0.581696 8.87695 0.581696 9.0722 0.699662 9.19017C0.760679 9.25119 0.837967 9.27966 0.915256 9.27966Z" fill="#4F4F4F"/>
</svg>
