<svg width="25" height="25" viewBox="0 0 25 25" fill="none" xmlns="http://www.w3.org/2000/svg">
<path d="M16.6667 23.6979H8.33333C4.53125 23.6979 2.34375 21.5104 2.34375 17.7083V7.29165C2.34375 3.48956 4.53125 1.30206 8.33333 1.30206H16.6667C20.4687 1.30206 22.6562 3.48956 22.6562 7.29165V17.7083C22.6562 21.5104 20.4687 23.6979 16.6667 23.6979ZM8.33333 2.86456C5.35417 2.86456 3.90625 4.31248 3.90625 7.29165V17.7083C3.90625 20.6875 5.35417 22.1354 8.33333 22.1354H16.6667C19.6458 22.1354 21.0937 20.6875 21.0937 17.7083V7.29165C21.0937 4.31248 19.6458 2.86456 16.6667 2.86456H8.33333Z" fill="#626262"/>
<path d="M9.37508 11.5729C9.198 11.5729 9.02091 11.5417 8.85425 11.4687C8.37508 11.2604 8.073 10.7916 8.073 10.2812V2.08331C8.073 1.65623 8.42716 1.30206 8.85425 1.30206H16.1459C16.573 1.30206 16.9272 1.65623 16.9272 2.08331V10.2708C16.9272 10.7916 16.6251 11.2604 16.1459 11.4583C15.6772 11.6666 15.1251 11.5729 14.7397 11.2187L12.5001 9.16663L10.2605 11.2292C10.0105 11.4583 9.698 11.5729 9.37508 11.5729ZM12.5001 7.51042C12.8126 7.51042 13.1355 7.62496 13.3855 7.85412L15.3647 9.67704V2.86456H9.6355V9.67704L11.6147 7.85412C11.8647 7.62496 12.1876 7.51042 12.5001 7.51042Z" fill="#626262"/>
<path d="M18.2291 15.3646H13.802C13.3749 15.3646 13.0208 15.0104 13.0208 14.5833C13.0208 14.1562 13.3749 13.8021 13.802 13.8021H18.2291C18.6562 13.8021 19.0103 14.1562 19.0103 14.5833C19.0103 15.0104 18.6562 15.3646 18.2291 15.3646Z" fill="#626262"/>
<path d="M18.2292 19.5312H9.375C8.94792 19.5312 8.59375 19.1771 8.59375 18.75C8.59375 18.3229 8.94792 17.9688 9.375 17.9688H18.2292C18.6562 17.9688 19.0104 18.3229 19.0104 18.75C19.0104 19.1771 18.6562 19.5312 18.2292 19.5312Z" fill="#626262"/>
</svg>
