<svg width="23" height="23" viewBox="0 0 23 23" fill="none" xmlns="http://www.w3.org/2000/svg">
<path d="M18.2084 21.8021C17.8155 21.8021 17.4896 21.4763 17.4896 21.0834V10.5417C17.4896 10.1488 17.8155 9.82294 18.2084 9.82294C18.6013 9.82294 18.9271 10.1488 18.9271 10.5417V21.0834C18.9271 21.4763 18.6013 21.8021 18.2084 21.8021Z" fill="#626262"/>
<path d="M18.2084 7.4271C17.8155 7.4271 17.4896 7.10127 17.4896 6.70835V1.91669C17.4896 1.52377 17.8155 1.19794 18.2084 1.19794C18.6013 1.19794 18.9271 1.52377 18.9271 1.91669V6.70835C18.9271 7.10127 18.6013 7.4271 18.2084 7.4271Z" fill="#626262"/>
<path d="M11.5 21.8021C11.1071 21.8021 10.7812 21.4763 10.7812 21.0834V16.2917C10.7812 15.8988 11.1071 15.5729 11.5 15.5729C11.8929 15.5729 12.2188 15.8988 12.2188 16.2917V21.0834C12.2188 21.4763 11.8929 21.8021 11.5 21.8021Z" fill="#626262"/>
<path d="M11.5 13.1771C11.1071 13.1771 10.7812 12.8513 10.7812 12.4584V1.91669C10.7812 1.52377 11.1071 1.19794 11.5 1.19794C11.8929 1.19794 12.2188 1.52377 12.2188 1.91669V12.4584C12.2188 12.8513 11.8929 13.1771 11.5 13.1771Z" fill="#626262"/>
<path d="M4.79163 21.8021C4.39871 21.8021 4.07288 21.4763 4.07288 21.0834V10.5417C4.07288 10.1488 4.39871 9.82294 4.79163 9.82294C5.18454 9.82294 5.51038 10.1488 5.51038 10.5417V21.0834C5.51038 21.4763 5.18454 21.8021 4.79163 21.8021Z" fill="#626262"/>
<path d="M4.79163 7.4271C4.39871 7.4271 4.07288 7.10127 4.07288 6.70835V1.91669C4.07288 1.52377 4.39871 1.19794 4.79163 1.19794C5.18454 1.19794 5.51038 1.52377 5.51038 1.91669V6.70835C5.51038 7.10127 5.18454 7.4271 4.79163 7.4271Z" fill="#626262"/>
<path d="M6.70833 11.2604H2.875C2.48208 11.2604 2.15625 10.9346 2.15625 10.5417C2.15625 10.1488 2.48208 9.82294 2.875 9.82294H6.70833C7.10125 9.82294 7.42708 10.1488 7.42708 10.5417C7.42708 10.9346 7.10125 11.2604 6.70833 11.2604Z" fill="#626262"/>
<path d="M20.125 11.2604H16.2916C15.8987 11.2604 15.5729 10.9346 15.5729 10.5417C15.5729 10.1488 15.8987 9.82294 16.2916 9.82294H20.125C20.5179 9.82294 20.8437 10.1488 20.8437 10.5417C20.8437 10.9346 20.5179 11.2604 20.125 11.2604Z" fill="#626262"/>
<path d="M13.4167 13.1771H9.58337C9.19046 13.1771 8.86462 12.8512 8.86462 12.4583C8.86462 12.0654 9.19046 11.7396 9.58337 11.7396H13.4167C13.8096 11.7396 14.1355 12.0654 14.1355 12.4583C14.1355 12.8512 13.8096 13.1771 13.4167 13.1771Z" fill="#626262"/>
</svg>
